<svg width="146" height="20" viewBox="0 0 146 20" fill="none" xmlns="http://www.w3.org/2000/svg">
<g id="Group 28">
<g id="Group 23">
<path id="Star 1" d="M40 0L42.2451 6.90983H49.5106L43.6327 11.1803L45.8779 18.0902L40 13.8197L34.1221 18.0902L36.3673 11.1803L30.4894 6.90983H37.7549L40 0Z" fill="#FDD33D"/>
<path id="Star 2" d="M64 0L66.2451 6.90983H73.5106L67.6327 11.1803L69.8779 18.0902L64 13.8197L58.1221 18.0902L60.3673 11.1803L54.4894 6.90983H61.7549L64 0Z" fill="#CDCCC8"/>
<path id="Star 3" d="M88 0L90.2451 6.90983H97.5106L91.6327 11.1803L93.8779 18.0902L88 13.8197L82.1221 18.0902L84.3673 11.1803L78.4894 6.90983H85.7549L88 0Z" fill="#CDCCC8"/>
<path id="Star 4" d="M112 0L114.245 6.90983H121.511L115.633 11.1803L117.878 18.0902L112 13.8197L106.122 18.0902L108.367 11.1803L102.489 6.90983H109.755L112 0Z" fill="#CDCCC8"/>
<path id="Star 5" d="M136 0L138.245 6.90983H145.511L139.633 11.1803L141.878 18.0902L136 13.8197L130.122 18.0902L132.367 11.1803L126.489 6.90983H133.755L136 0Z" fill="#CDCCC8"/>
</g>
<g id="Group 22">
<rect id="Rectangle 1" x="0.5" y="0.5" width="19" height="19" rx="1.5" stroke="black"/>
</g>
</g>
</svg>
